PathFileType	4	(X/Y/Z)	s01c0402.trc
DataRate	CameraRate	NumFrames	NumMarkers	Units	OrigDataRate	OrigDataStartFrame	OrigNumFrames
200	200	4	48	mm	200	250	2000
Frame#	Time	racr			lacr			c7			jug			rlel			rdr			llel			ldr			s2			lic			ric			lasi			rasi			rpsi			lpsi			rgt			lgt			rth1			rth2			rth3			rth4			rlfc			rsh1			rsh2			rsh3			rsh4			rlmal			rmmal			rcal			rtoe			rmt5			lth1			lth2			lth4			lth3			llfc			lsh1			lsh2			lsh3			lsh4			llmal			lmmal			lcal			ltoe			lmt5			SBIKE			LBIKE			RBIKE			
		X1	Y1	Z1	X2	Y2	Z2	X3	Y3	Z3	X4	Y4	Z4	X5	Y5	Z5	X6	Y6	Z6	X7	Y7	Z7	X8	Y8	Z8	X9	Y9	Z9	X10	Y10	Z10	X11	Y11	Z11	X12	Y12	Z12	X13	Y13	Z13	X14	Y14	Z14	X15	Y15	Z15	X16	Y16	Z16	X17	Y17	Z17	X18	Y18	Z18	X19	Y19	Z19	X20	Y20	Z20	X21	Y21	Z21	X22	Y22	Z22	X23	Y23	Z23	X24	Y24	Z24	X25	Y25	Z25	X26	Y26	Z26	X27	Y27	Z27	X28	Y28	Z28	X29	Y29	Z29	X30	Y30	Z30	X31	Y31	Z31	X32	Y32	Z32	X33	Y33	Z33	X34	Y34	Z34	X35	Y35	Z35	X36	Y36	Z36	X37	Y37	Z37	X38	Y38	Z38	X39	Y39	Z39	X40	Y40	Z40	X41	Y41	Z41	X42	Y42	Z42	X43	Y43	Z43	X44	Y44	Z44	X45	Y45	Z45	X46	Y46	Z46	X47	Y47	Z47	X48	Y48	Z48	
250	1.2500	461.955444	1356.424194	-101.340393	462.479248	1335.238281	-430.451416	420.433777	1413.066284	-261.003113	447.026520	1254.500366	-256.975769	533.829163	1092.570190	1.226025	707.967102	897.356140	-48.427670	512.351929	1067.609009	-535.525208	704.717590	905.990295	-452.785675	-73.529579	1141.083740	-237.325531	111.352943	1164.042847	-419.265717	93.771400	1131.683716	-91.322647	86.172478	1113.280518	-396.759644	115.357330	1082.463623	-117.717262	-40.982246	1174.607300	-183.393585	-52.658783	1184.335693	-288.184937	33.083408	1007.904175	-64.029770	32.189133	1045.783691	-451.410828	109.792061	894.825256	-51.689709	163.462631	831.255981	-56.323166	216.960602	759.285156	-71.378845	206.742218	865.372559	-68.463127	256.465363	662.549988	-96.045189	182.765167	570.034790	-62.350258	141.662888	496.101593	-66.109261	89.638016	424.026520	-78.615059	180.102570	474.061798	-107.407883	13.381526	321.514893	-97.676186	56.863903	326.373810	-177.834961	-38.800968	302.771576	-154.071976	216.257523	211.329544	-136.971191	107.181847	211.666641	-69.436745	149.587067	981.651550	-462.567993	223.741211	967.307129	-459.307739	231.522690	1020.287231	-451.699707	307.196228	949.192383	-447.036957	411.093567	885.313110	-426.137787	336.722168	800.789673	-447.202759	305.280487	720.539734	-439.037506	272.109772	642.578674	-422.324829	359.460327	702.297424	-415.031982	229.425308	522.168274	-403.281830	258.133667	534.606873	-321.240784	178.170334	480.261169	-363.144043	455.466370	482.781830	-371.844177	352.867035	452.579742	-437.265350	-225.112259	892.766113	-252.649628	-12.581294	85.118256	-455.835571	-21.689451	80.995171	-55.827469	
251	1.2550	462.899536	1356.016235	-101.873482	463.551300	1334.411133	-430.011139	420.980713	1412.700073	-261.266266	447.937073	1254.150024	-257.069427	532.656799	1092.031372	3.001969	707.502197	897.658020	-49.435532	510.845734	1066.291138	-537.134827	704.315735	906.743286	-453.166962	-73.575630	1141.425171	-237.213547	111.099701	1163.713623	-419.876617	93.624298	1131.920410	-91.152504	86.261940	1113.441772	-396.491150	115.097878	1082.573364	-117.352501	-40.976753	1175.010132	-183.278046	-51.992031	1184.974731	-288.011078	32.712456	1007.976685	-63.798836	32.254879	1045.999390	-451.208618	109.574310	895.101440	-51.366489	163.391418	831.519531	-56.032108	216.974655	759.613220	-71.083153	206.648087	865.703064	-68.274681	256.498322	663.136047	-96.072083	182.697220	570.724976	-62.408508	141.532883	496.854828	-66.186897	89.562355	424.751282	-78.719955	180.098236	474.750183	-107.419876	13.370917	322.047577	-97.777565	56.907726	326.655273	-177.901642	-38.647938	303.398132	-154.165131	216.178787	211.289673	-136.952545	107.090187	211.904343	-69.472321	150.520981	982.013367	-462.733398	223.804535	967.430786	-458.622253	231.611908	1020.393799	-450.655548	307.407959	949.303467	-446.197357	411.208984	885.610168	-425.539093	336.983826	800.839600	-446.845337	305.641144	720.585999	-438.835236	272.555878	642.531738	-422.179993	359.748596	702.365723	-414.749207	229.875565	522.107544	-403.411194	258.514313	534.574036	-321.316620	178.423859	480.379974	-363.274750	455.763367	482.373840	-371.904694	353.105988	452.306641	-437.403290	-225.131027	892.747437	-252.661057	-12.614305	84.978821	-455.900787	-21.706209	81.006195	-55.830193	
252	1.2600	463.899628	1355.662598	-102.342842	464.763733	1333.462036	-429.652557	421.544098	1412.175537	-261.440979	449.017059	1253.752441	-257.112091	531.267456	1091.365479	5.059608	706.869568	898.148376	-50.065899	509.453796	1065.239868	-538.773499	703.880249	907.555237	-453.544922	-73.601631	1141.837769	-237.094437	110.864906	1163.450073	-420.541534	93.473343	1132.156738	-90.961128	86.386147	1113.601685	-396.208893	114.827606	1082.663086	-116.979706	-40.837563	1175.390869	-183.282089	-51.293770	1185.642700	-287.831329	32.315060	1008.113586	-63.537445	32.290489	1046.269531	-451.024231	109.409889	895.336609	-51.094078	163.389099	831.922607	-55.506424	216.952148	760.065979	-70.663559	206.397095	865.966675	-68.270226	256.439789	663.790161	-96.099419	182.577347	571.570129	-62.496140	141.421677	497.658508	-66.301430	89.493874	425.544708	-78.833191	180.056091	475.542603	-107.446930	13.421818	322.684326	-97.879097	56.943363	326.985565	-177.960785	-38.493301	304.002136	-154.302719	216.090332	211.253464	-136.953552	106.998039	212.184280	-69.515106	151.476410	982.377319	-462.892273	223.877975	967.559387	-457.879486	231.810944	1020.664734	-449.726257	307.388550	949.477295	-445.336792	411.154510	885.816040	-424.829254	337.251068	800.934814	-446.382996	306.088287	720.622620	-438.616058	273.080536	642.488220	-422.030701	360.142670	702.499939	-414.342102	230.352676	522.057495	-403.555939	258.934784	534.570557	-321.386047	178.736191	480.492706	-363.379242	456.024200	482.032227	-371.960724	353.429840	452.057831	-437.514496	-225.131439	892.714050	-252.658401	-12.592756	85.095963	-455.839874	-21.694534	80.991394	-55.827152	
253	1.2650	464.931427	1355.319580	-102.747032	466.030151	1332.389648	-429.374695	422.217285	1411.460571	-261.675079	450.085785	1253.034546	-257.233490	529.689270	1090.504272	7.283885	706.459961	898.751343	-50.593121	508.018707	1064.140625	-540.404541	703.387207	908.445129	-453.872986	-73.590034	1142.346436	-236.908737	110.653114	1163.213623	-421.352905	93.282921	1132.431396	-90.741112	86.543633	1113.754517	-395.921875	114.504326	1082.714600	-116.543877	-40.711254	1175.892334	-183.225357	-50.563469	1186.340210	-287.645599	31.930622	1008.328918	-63.249783	32.309769	1046.593384	-450.847778	109.228058	895.679504	-50.750229	163.321091	832.389954	-55.094296	216.742233	760.592346	-70.297897	206.243546	866.453613	-67.921448	256.434326	664.416931	-96.190544	182.415848	572.436951	-62.599216	141.301102	498.525665	-66.444176	89.390396	426.402191	-78.931747	179.993317	476.421997	-107.475204	13.462634	323.317596	-97.896591	56.974949	327.359772	-178.015778	-38.327045	304.674255	-154.396851	216.029312	211.198120	-136.942139	106.888367	212.488556	-69.555305	152.452789	982.742554	-463.043457	223.964172	967.689636	-457.078949	233.002274	1020.980408	-448.079987	307.750458	949.574768	-444.244598	411.217285	886.082031	-423.883789	337.504120	801.068420	-445.939178	306.407501	720.664795	-438.230438	273.580536	642.464417	-421.872437	360.597626	702.565247	-413.404449	230.835663	522.020203	-403.718231	259.414185	534.602112	-321.466003	179.127213	480.609650	-363.548706	456.345917	481.681854	-372.004730	353.836914	451.726166	-437.581055	-225.131027	892.679138	-252.668900	-12.612764	84.984718	-455.911377	-21.722139	80.964417	-55.818470	
